# xmcd CD database file
#
# Track frame offsets:
#	150
#	16325
#	32384
#	44140
#	61593
#	77734
#	91760
#	110109
#	123559
#	142517
#	154422
#
# Disc length: 2417 seconds
#
# Revision: 1
# Processed by: cddbd v1.5.1PL0 Copyright (c) Steve Scherf et al.
# Submitted via: CDex 1.50beta10
#
DISCID=84096f0b
DTITLE=SUPERMERK2 - LA LATA
DYEAR=2003
DGENRE=Salsa
TTITLE0=La lata
TTITLE1=La resaka
TTITLE2=El Avion
TTITLE3=Mulo raro
TTITLE4=La gorda
TTITLE5=Levanten las manos
TTITLE6=Que calor
TTITLE7=Todos los pibes
TTITLE8=Tomando porqueria
TTITLE9=Triste
TTITLE10=Banda Luna -El mamut
EXTD=YEAR: 2003
EXTT0=
EXTT1=
EXTT2=
EXTT3=
EXTT4=
EXTT5=
EXTT6=
EXTT7=
EXTT8=
EXTT9=
EXTT10=
PLAYORDER=
